# xmcd CD database file
#
# Track frame offsets:
#	150
#	11952
#	22460
#	30667
#	42268
#	51987
#	59563
#	71960
#	84136
#	94304
#	105630
#	113213
#	121623
#	130553
#
# Disc length: 1839 seconds
#
# Revision: 0
# Processed by: cddbd v1.5.2PL0 Copyright (c) Steve Scherf et al.
# Submitted via: CDex 1.51
#
DISCID=c2072d0e
DTITLE=Dale Watson - The Sun Sessions
DYEAR=2011
DGENRE=Country
TTITLE0=Down Down Down Down Down
TTITLE1=Jonny At The Door
TTITLE2=Drive Drive Drive
TTITLE3=Elbow Grease, Spackle and Pine Sol
TTITLE4=Gothenburg Train
TTITLE5=The Hand Of Jesus
TTITLE6=My Baby Makes Me Gravy
TTITLE7=Her Love
TTITLE8=Ponder Why I Ponder Why
TTITLE9=George O'Dwyer
TTITLE10=I've Done That Before
TTITLE11=Big Daddy
TTITLE12=If You Know What's Good For You
TTITLE13=Lord, I'm Free
EXTD=YEAR: 2011
EXTT0=
EXTT1=
EXTT2=
EXTT3=
EXTT4=
EXTT5=
EXTT6=
EXTT7=
EXTT8=
EXTT9=
EXTT10=
EXTT11=
EXTT12=
EXTT13=
PLAYORDER=
